<svg width="2000" height="2000" viewBox="0 0 2000 2000" fill="none" xmlns="http://www.w3.org/2000/svg">
<circle cx="1600" cy="199" r="100" fill="#D2BD00"/>
<path d="M244.331 1492.14C198.884 1521.74 185.675 1582.94 219.586 1625.26C302.884 1729.23 406.337 1815.77 524.082 1879.49C670.695 1958.83 834.815 2000.25 1001.52 2000C1168.22 1999.75 1332.21 1957.82 1478.58 1878.04C1596.13 1813.97 1699.32 1727.11 1782.31 1622.89C1816.09 1580.47 1802.69 1519.31 1757.16 1489.85C1711.62 1460.39 1651.26 1473.89 1616.47 1515.5C1551.97 1592.63 1473.38 1657.2 1384.59 1705.59C1266.96 1769.7 1135.18 1803.39 1001.22 1803.6C867.257 1803.8 735.371 1770.51 617.554 1706.76C528.618 1658.63 449.829 1594.3 385.1 1517.37C350.183 1475.87 289.777 1462.55 244.331 1492.14Z" fill="#D2BD00"/>
<path fill-rule="evenodd" clip-rule="evenodd" d="M600 299C544.772 299 500 343.772 500 399V1199C500 1254.23 544.772 1299 600 1299H1400C1455.23 1299 1500 1254.23 1500 1199V399C1500 343.772 1455.23 299 1400 299H600ZM780 499C735.817 499 700 534.817 700 579V1019C700 1063.18 735.817 1099 780 1099H1220C1264.18 1099 1300 1063.18 1300 1019V579C1300 534.817 1264.18 499 1220 499H780Z" fill="#D2BD00"/>
</svg>
